<?xml version="1.0" encoding="utf-8"?>
<!-- Generator: Adobe Illustrator 22.1.0, SVG Export Plug-In . SVG Version: 6.00 Build 0)  -->
<svg version="1.1" id="Layer_1" xmlns="http://www.w3.org/2000/svg" xmlns:xlink="http://www.w3.org/1999/xlink" x="0px" y="0px"
	 viewBox="0 0 593.9 228.1" style="enable-background:new 0 0 593.9 228.1;" xml:space="preserve">
<style type="text/css">
	.st0{fill:#201747;}
</style>
<g>
	<path class="st0" d="M58.5,117.9h-9.8l4.9-10.4L58.5,117.9z M65,131.5h11L58,93.8c-0.9-2-2.6-3.1-4.4-3.1c-1.8,0-3.4,1-4.4,3.1
		l-17.9,37.7h11l2.3-4.8h18.3L65,131.5z M17.9,97.8c0-2.7,1.9-6.1,4.2-7.4l27.4-16.2c2.3-1.4,6-1.4,8.4,0l27.4,16.2
		c2.3,1.4,4.2,4.8,4.2,7.4v32.5c0,2.7-1.9,6.1-4.2,7.4L57.8,154c-2.3,1.4-6,1.4-8.4,0L22,137.7c-2.3-1.4-4.2-4.7-4.2-7.4V97.8z"/>
	<path class="st0" d="M138.3,120.3l5.4-15.3l5.6,15.3H138.3z M149.2,94.9c-0.8-2.2-2.8-3.6-5-3.6c-2.4,0-4.3,1.5-5.1,3.6l-15.3,41.3
		h9l3.1-8.2h16l2.9,8.2h10L149.2,94.9z M172.1,120.8V91.6h9.4v28.2c0,5.3,2.6,8.8,8.1,8.8c5.2,0,8-3,8-8.8V91.6h9.3v28.5
		c0,10.9-7.5,16.9-17.6,16.9C178.9,137.2,172.1,131.7,172.1,120.8 M230,99.7h-12.5v-8.1h34.2v8.1h-12.5v36.6h-9.4V99.7H230z
		 M286.2,120.8V107c0-5-4.1-7.8-8.7-7.8c-4.1,0-8.4,2.2-8.4,8v13.6c0,5.1,3.9,8,8.7,8C281.9,128.9,286.2,126.6,286.2,120.8
		 M259.7,121.2v-13.5c0-11.1,8.8-16.8,17.8-16.8c9.6,0,18.1,5.8,18.1,16.6v12.8c0,11.1-9.1,16.8-17.8,16.8
		C268.4,137.2,259.7,132,259.7,121.2 M307.5,91.6h11.7l10,25.5h0.1l9.7-25.5h11.7v44.7h-9.1v-29.2h-0.1l-9.1,23.5h-7l-8.9-23.4h-0.1
		v29h-8.9V91.6z M374.6,120.3l5.5-15.3l5.6,15.3H374.6z M385.6,94.9c-0.8-2.2-2.8-3.6-5-3.6c-2.4,0-4.3,1.5-5.1,3.6l-15.6,41.3h9.1
		l3.1-8.2h16l2.9,8.2h10C401.1,136.2,385.6,94.9,385.6,94.9 M415.2,99.7h-12.5v-8.1h34.2v8.1h-12.5v36.6H415V99.7H415.2z
		 M447.8,91.6h9.4v44.7h-9.4V91.6z M470.1,121.3v-13.9c0-10.8,8.3-16.5,17.8-16.5c8.4,0,17.2,4.6,17.2,14.7v1.8h-9.1v-0.9
		c0-5.3-4.5-7.3-8.1-7.3c-3.9,0-8.4,2.2-8.4,7.8v13.9c0,5,3.9,7.8,8.7,7.8c3.5,0,7.9-2,7.9-7.4v-0.8h8.9v1.8
		c0,10.3-8.4,14.7-16.9,14.7C478.6,137.2,470.1,131.9,470.1,121.3"/>
</g>
</svg>
